Coordinates
version=1
nRows=22
nColumns=24
inDegrees=yes

Units are S.I. units (second, meters, Newtons, ...)
Angles are in degrees.

endheader
time	pelvis_tilt	pelvis_list	pelvis_rotation	pelvis_tx	pelvis_ty	pelvis_tz	hip_flexion_r	hip_adduction_r	hip_rotation_r	knee_angle_r	ankle_angle_r	subtalar_angle_r	mtp_angle_r	hip_flexion_l	hip_adduction_l	hip_rotation_l	knee_angle_l	ankle_angle_l	subtalar_angle_l	mtp_angle_l	lumbar_extension	lumbar_bending	lumbar_rotation
      2.77000000	     -2.17489186	     -3.52223988	     -1.53146436	      0.31296791	      1.00391547	     -0.04540621	     17.17337543	      0.32940368	      2.12371713	    -62.96404046	     -1.65791326	      0.00000000	      0.00000000	     14.03101390	     -1.36711803	      4.59764570	    -22.15355504	     11.89084227	      0.00000000	      0.00000000	    -12.08877311	     11.17004995	      1.90553193
      2.78000000	     -2.25407156	     -3.64544563	     -1.48142422	      0.31295000	      1.00488801	     -0.04625771	     17.93742711	      0.51731752	      2.23334405	    -62.66238172	     -0.15587330	      0.00000000	      0.00000000	     13.37623178	     -1.46928949	      4.48833043	    -21.63017379	     12.02914938	      0.00000000	      0.00000000	    -11.98109167	     11.33560953	      1.86497572
      2.79000000	     -2.35347229	     -3.74289766	     -1.45779280	      0.31299297	      1.00586597	     -0.04709496	     18.63084253	      0.64968601	      2.32576920	    -61.99553526	      1.04215889	      0.00000000	      0.00000000	     12.75960819	     -1.54239437	      4.35734745	    -21.16472359	     12.13809755	      0.00000000	      0.00000000	    -11.84431093	     11.47384885	      1.85126660
      2.80000000	     -2.43153202	     -3.86946681	     -1.47271288	      0.31277246	      1.00670993	     -0.04765423	     19.33760419	      0.86944995	      2.50675692	    -61.27592728	      2.30199012	      0.00000000	      0.00000000	     12.07816162	     -1.67306689	      4.23400761	    -20.56198099	     12.13820682	      0.00000000	      0.00000000	    -11.78817940	     11.62075223	      1.88048130
      2.81000000	     -2.53436959	     -3.95140414	     -1.45670971	      0.31259589	      1.00751839	     -0.04833512	     19.96390484	      0.96168645	      2.59494338	    -60.18871126	      3.04623045	      0.00000000	      0.00000000	     11.47633688	     -1.74379212	      4.04759100	    -20.06852918	     12.21854278	      0.00000000	      0.00000000	    -11.70599760	     11.74689981	      1.90819558
      2.82000000	     -2.64770655	     -4.07925760	     -1.50952842	      0.31239606	      1.00824501	     -0.04882310	     20.55475118	      1.10674860	      2.69534902	    -58.88851229	      3.80934358	      0.00000000	      0.00000000	     10.81764656	     -1.88269676	      3.87775797	    -19.44288853	     12.25021407	      0.00000000	      0.00000000	    -11.63378845	     11.90950821	      2.00882685
      2.83000000	     -2.73784262	     -4.18901400	     -1.58711188	      0.31219655	      1.00892294	     -0.04923732	     21.05216112	      1.20067132	      2.77150159	    -57.34295190	      4.39097223	      0.00000000	      0.00000000	     10.15492570	     -2.00411670	      3.68448648	    -18.87602391	     12.27837465	      0.00000000	      0.00000000	    -11.59985581	     12.05298043	      2.12108901
      2.84000000	     -2.64961264	     -4.34387604	     -1.71514174	      0.31201407	      1.00983316	     -0.04949402	     21.26814890	      1.34772357	      2.89759804	    -55.51940274	      4.87488951	      0.00000000	      0.00000000	      9.24184725	     -2.18819925	      3.39174569	    -18.18303951	     12.18997381	      0.00000000	      0.00000000	    -11.80169186	     12.22786965	      2.29217356
      2.85000000	     -2.78273946	     -4.24954696	     -1.77139886	      0.31154574	      1.01002729	     -0.04996651	     21.82443661	      1.10189294	      2.80403468	    -53.76681350	      5.11537327	      0.00000000	      0.00000000	      8.86601964	     -2.05148217	      3.26586994	    -18.10142819	     12.37383973	      0.00000000	      0.00000000	    -11.74854995	     12.16027061	      2.36579490
      2.86000000	     -2.97858882	     -4.47509062	     -1.84021979	      0.31153595	      1.01034875	     -0.05012982	     22.16881206	      1.28887148	      2.86880977	    -51.51692293	      5.77528590	      0.00000000	      0.00000000	      8.13761502	     -2.30672688	      3.18577013	    -17.15816592	     12.51509176	      0.00000000	      0.00000000	    -11.57188556	     12.44934905	      2.38077558
      2.87000000	     -2.80047019	     -4.65046119	     -1.93892523	      0.31138343	      1.01108543	     -0.05028401	     22.05810404	      1.35895980	      2.87940255	    -49.01051406	      5.92066960	      0.00000000	      0.00000000	      7.16970256	     -2.49431533	      2.89100535	    -16.54224747	     12.44815399	      0.00000000	      0.00000000	    -11.87966224	     12.66092753	      2.48914394
      2.88000000	     -2.96757627	     -4.47510844	     -2.05092883	      0.31101043	      1.01087170	     -0.05043815	     22.48980531	      1.00064687	      2.76549879	    -46.76056648	      6.07998492	      0.00000000	      0.00000000	      6.79981077	     -2.28582743	      2.77288540	    -16.42861369	     12.69700151	      0.00000000	      0.00000000	    -11.77253382	     12.48425130	      2.54766174
      2.89000000	     -2.97384221	     -4.80488235	     -2.09007453	      0.31102179	      1.01126876	     -0.05042803	     22.33069992	      1.21512692	      2.71823950	    -43.70632008	      5.89856248	      0.00000000	      0.00000000	      5.88063138	     -2.64395565	      2.75867885	    -15.50270272	     12.72115595	      0.00000000	      0.00000000	    -11.83631304	     12.88325001	      2.57049239
      2.90000000	     -2.88743398	     -4.91264069	     -2.19257649	      0.31088298	      1.01149730	     -0.05035638	     22.12913380	      1.16178806	      2.63069886	    -40.67301822	      5.43773027	      0.00000000	      0.00000000	      5.06761164	     -2.75211536	      2.57495178	    -15.03533563	     12.83644385	      0.00000000	      0.00000000	    -12.02408727	     13.01432674	      2.64674579
      2.91000000	     -2.92926400	     -4.97464684	     -2.28255337	      0.31073804	      1.01141189	     -0.05021271	     22.00580911	      1.05938367	      2.54532791	    -37.49757314	      4.82103241	      0.00000000	      0.00000000	      4.41534370	     -2.81148999	      2.46428088	    -14.60915001	     12.98412075	      0.00000000	      0.00000000	    -12.04725622	     13.10029354	      2.68920883
      2.92000000	     -2.94272351	     -5.09565194	     -2.38801776	      0.31060693	      1.01129790	     -0.04992909	     21.72465274	      1.02932612	      2.46458507	    -34.05764907	      4.00924385	      0.00000000	      0.00000000	      3.75397282	     -2.94095457	      2.31392897	    -14.24886215	     13.16367842	      0.00000000	      0.00000000	    -12.11700124	     13.24352267	      2.75380566
      2.93000000	     -3.15684837	     -5.04485878	     -2.51623704	      0.31045206	      1.01074117	     -0.04958479	     21.65657208	      0.83954529	      2.43790568	    -30.60620474	      3.08198899	      0.00000000	      0.00000000	      3.33038607	     -2.88501274	      2.32121916	    -13.92938971	     13.35718058	      0.00000000	      0.00000000	    -11.93484285	     13.20609716	      2.78095249
      2.94000000	     -3.25007757	     -5.25823375	     -2.60074778	      0.31044646	      1.01041055	     -0.04907118	     21.17839404	      0.91783552	      2.33546913	    -26.61309067	      1.84161234	      0.00000000	      0.00000000	      2.77121963	     -3.13429176	      2.11607571	    -13.61197088	     13.54817251	      0.00000000	      0.00000000	    -11.89283999	     13.45387727	      2.84118388
      2.95000000	     -3.52803984	     -5.03217746	     -2.74143127	      0.31035658	      1.00945597	     -0.04846082	     21.06858511	      0.59416737	      2.43683554	    -22.97742025	      1.11922023	      0.00000000	      0.00000000	      2.45773110	     -2.90174234	      2.12682985	    -13.39837252	     13.84434604	      0.00000000	      0.00000000	    -11.60591507	     13.20444388	      2.85049730
      2.96000000	     -3.43010818	     -5.41514716	     -2.84354387	      0.31058749	      1.00933713	     -0.04767976	     19.95894803	      0.88074603	      2.43007580	    -18.17137925	     -0.54843017	      0.00000000	      0.00000000	      1.64586575	     -3.34152578	      1.80687267	    -13.04721903	     14.04495105	      0.00000000	      0.00000000	    -11.80321037	     13.62885964	      2.97786554
      2.97000000	     -3.81467019	     -5.06139086	     -2.96696725	      0.31066901	      1.00800424	     -0.04698203	     19.83599118	      0.45194993	      2.59274290	    -14.38233426	     -1.23578648	      0.00000000	      0.00000000	      1.44301265	     -2.98270399	      1.82988838	    -12.81492112	     14.26976136	      0.00000000	      0.00000000	    -11.35152436	     13.26866352	      2.92097441
      2.98000000	     -3.85927773	     -5.17668530	     -3.01251329	      0.31114647	      1.00729251	     -0.04616911	     18.80451935	      0.47244914	      2.59479963	     -9.57446813	     -3.06398298	      0.00000000	      0.00000000	      0.84255046	     -3.13578640	      1.63323980	    -12.58243841	     14.43794975	      0.00000000	      0.00000000	    -11.29655690	     13.42335540	      2.92236592
